<svg width="26" height="19" viewBox="0 0 26 19" fill="none" xmlns="http://www.w3.org/2000/svg">
<path d="M22.0245 1.59125C20.3414 0.847875 18.5419 0.307624 16.6605 0C16.4294 0.394363 16.1595 0.924789 15.9734 1.34674C13.9734 1.0628 11.9918 1.0628 10.0286 1.34674C9.84251 0.924789 9.56643 0.394363 9.33331 0C7.44987 0.307624 5.64824 0.84986 3.96521 1.59518C0.57053 6.43786 -0.349712 11.1603 0.11041 15.8156C2.36194 17.4029 4.54394 18.3671 6.68912 18.998C7.21878 18.3099 7.69116 17.5784 8.09811 16.8074C7.32306 16.5294 6.58074 16.1863 5.87933 15.788C6.06541 15.6579 6.24743 15.5218 6.42328 15.3818C10.7014 17.2708 15.3496 17.2708 19.5766 15.3818C19.7545 15.5218 19.9365 15.6579 20.1206 15.788C19.4171 16.1883 18.6727 16.5313 17.8977 16.8094C18.3046 17.5784 18.775 18.3119 19.3067 19C21.4539 18.369 23.638 17.4049 25.8895 15.8156C26.4294 10.4189 24.9672 5.73984 22.0245 1.59125ZM8.68094 12.9526C7.3967 12.9526 6.34351 11.8208 6.34351 10.4425C6.34351 9.06425 7.37421 7.93049 8.68094 7.93049C9.98771 7.93049 11.0409 9.06227 11.0184 10.4425C11.0204 11.8208 9.98771 12.9526 8.68094 12.9526ZM17.319 12.9526C16.0347 12.9526 14.9815 11.8208 14.9815 10.4425C14.9815 9.06425 16.0122 7.93049 17.319 7.93049C18.6257 7.93049 19.6789 9.06227 19.6564 10.4425C19.6564 11.8208 18.6257 12.9526 17.319 12.9526Z" fill="#858585"/>
</svg>
